<svg width="200" height="200" viewBox="0 0 200 200" fill="none" xmlns="http://www.w3.org/2000/svg">
<rect width="200" height="200" rx="100" fill="#0F4266"/>
<g clip-path="url(#clip0)">
<path d="M151.148 107.214C156.39 106.827 160.625 110.114 161.028 115.14C161.431 120.36 157.6 124.614 152.357 125C147.316 125.387 142.88 121.714 142.477 116.88C142.074 111.66 145.703 107.794 151.148 107.214Z" fill="#86DA2F"/>
<path d="M87.4295 148.394C87.4295 143.367 91.4623 139.5 96.3016 139.5C101.141 139.5 105.779 143.754 105.779 148.587C105.779 153.227 101.746 157.287 97.1082 157.48C91.2606 157.48 87.4295 154 87.4295 148.394V148.394Z" fill="#24C2FF"/>
<path d="M101.746 91.9405C100.939 92.3271 100.536 91.7471 100.334 91.1671C92.8738 77.8271 95.0918 61.0071 108.198 50.9538C111.626 48.2471 118.079 47.6671 120.902 50.3738C122.111 51.3405 122.313 52.5005 122.515 53.8538C122.918 56.7538 123.523 59.6538 125.539 61.9738C127.757 64.4871 130.58 65.4538 133.807 65.2605C136.63 65.2605 139.452 64.8738 141.267 67.9671C142.275 69.7071 141.872 76.4738 140.259 77.8271C139.452 78.4071 138.848 78.0205 138.243 77.8271C133.605 76.0871 128.766 76.0871 123.926 76.8605C122.313 77.0538 121.507 76.6671 121.507 74.9271C121.305 72.0271 120.7 69.3205 119.087 66.8071C116.062 61.5871 110.416 61.3938 106.787 66.2271C103.762 70.0938 102.956 74.7338 102.149 79.3738C101.343 83.4338 101.544 87.6871 101.746 91.9405C101.746 91.9405 101.544 91.9405 101.746 91.9405V91.9405Z" fill="#FFCB12"/>
<path d="M106.787 94.8405C106.384 94.2605 106.585 93.6805 107.19 93.2938C118.684 83.2405 135.823 81.3071 149.131 91.1671C152.559 93.8738 154.777 99.4805 152.962 102.767C152.156 104.12 151.148 104.7 149.938 105.087C147.115 106.247 144.493 107.407 142.679 109.92C140.864 112.434 140.461 115.334 141.267 118.427C141.872 120.94 142.88 123.647 140.259 125.967C138.848 127.32 131.992 128.48 130.177 127.32C129.37 126.74 129.572 126.16 129.774 125.387C130.379 120.554 129.169 116.107 127.354 111.854C126.749 110.307 126.951 109.534 128.564 109.147C131.387 108.374 134.008 107.02 136.025 105.087C140.461 101.027 139.452 95.8071 133.605 93.4871C128.967 91.5538 124.128 91.9405 119.49 92.3271C115.054 92.5205 110.82 93.6805 106.787 94.8405Z" fill="#86DA2F"/>
<path d="M104.166 99.8671C104.771 99.2871 105.174 99.4805 105.779 99.8671C119.087 107.6 125.943 122.874 119.893 137.76C118.28 141.627 113.038 145.494 109.207 144.527C107.593 144.14 106.787 143.367 105.98 142.4C104.166 140.08 102.149 137.954 99.1246 136.987C95.8984 136.02 93.0754 136.6 90.2525 138.147C87.8328 139.5 85.4131 141.24 82.3885 139.5C80.5738 138.534 77.5492 132.54 78.1541 130.607C78.5574 129.834 79.364 129.834 80.1705 129.834C85.2115 129.06 89.2443 126.74 93.0754 123.647C94.2853 122.68 95.2935 122.68 96.3017 124.034C97.9148 126.354 99.9312 128.287 102.552 129.64C107.795 132.54 112.836 130.027 113.441 124.227C114.046 119.394 112.231 115.14 110.618 110.887C108.803 107.02 106.585 103.347 104.166 99.8671V99.8671Z" fill="#24C2FF"/>
<path d="M97.7131 101.027C96.9065 104.894 95.0918 108.567 92.6721 111.854C85.4131 122.294 74.9279 126.547 62.0229 125.387C57.3852 125 53.5541 121.327 53.1508 117.654C52.9492 116.107 53.3524 114.947 54.3606 113.787C55.7721 112.047 56.9819 110.5 57.5869 108.374C58.7967 104.12 57.1836 100.64 53.9574 97.5471C49.5213 93.2938 50.1262 89.4271 55.3688 86.3338C55.9738 85.9471 56.7803 85.5605 57.5869 85.1738C58.7967 84.5938 59.8049 84.5938 60.2082 85.9471C62.0229 90.3938 65.6524 93.6805 69.6852 96.3871C71.0967 97.5471 71.0967 98.3205 69.8869 99.6738C67.4672 102.187 66.0557 105.28 65.8541 108.76C65.4508 113.014 68.0721 115.72 72.5082 115.72C75.3311 115.72 77.9524 114.754 80.3721 113.594C86.6229 110.5 91.4623 106.054 96.1 101.414C96.7049 101.22 96.9065 100.834 97.7131 101.027Z" fill="#0069DA"/>
<path d="M64.6442 60.4271C65.0475 60.4271 66.0557 60.6205 67.0639 60.8138C74.5246 62.1671 79.1623 59.6538 81.582 52.8871C83.1951 48.4405 86.6229 47.0871 91.059 49.4071C91.2606 49.4071 91.2606 49.6005 91.4623 49.6005C96.1 52.1138 96.1 52.5005 93.277 56.3671C90.8574 59.4605 89.6475 62.9405 89.0426 66.6138C88.6393 68.7405 87.8328 69.1271 85.8164 68.3538C82.5901 67.1938 79.1623 67.1938 75.7344 68.3538C71.9033 69.5138 70.2901 72.8005 71.5 76.4738C73.1131 81.3071 77.5492 83.4338 81.3803 85.9471C85.2115 88.4605 89.6475 89.8138 93.8819 91.5538C94.4869 91.7471 95.4951 91.7471 95.2934 92.7138C95.0918 93.2938 94.2852 93.2938 93.4787 93.2938C84.4049 93.6805 75.7344 92.3271 68.677 86.5271C62.0229 81.3071 57.1836 74.9271 57.9901 66.0338C58.5951 63.1338 60.8131 61.0071 64.6442 60.4271V60.4271Z" fill="#FF4649"/>
<path d="M48.1098 114.754C43.2705 115.334 38.4311 111.467 38.0279 106.634C37.6246 101.994 41.6574 97.3538 46.2951 96.9671C51.5377 96.3871 56.377 99.8671 56.7803 104.507C56.982 108.954 53.9574 114.367 48.1098 114.754V114.754Z" fill="#0069DA"/>
<path d="M132.798 45.9271C137.839 45.5405 142.679 49.4071 143.082 54.2405C143.485 58.8805 139.452 63.3271 134.613 63.7138C129.37 64.1005 124.733 60.4271 124.33 55.5938C123.926 50.7605 127.556 46.3138 132.798 45.9271V45.9271Z" fill="#FFCB12"/>
<path d="M80.1705 49.6005C80.7754 54.6271 77.1459 58.8805 71.7016 59.6538C67.0639 60.2338 62.2246 56.5605 61.6197 52.3071C61.0147 46.7005 64.241 42.6405 69.6852 42.0605C74.7262 41.4805 79.5656 45.1538 80.1705 49.6005V49.6005Z" fill="#FF4649"/>
</g>
<defs>
<clipPath id="clip0">
<rect width="123" height="116" fill="white" transform="translate(38 42)"/>
</clipPath>
</defs>
</svg>
